<svg width="159" height="80" viewBox="0 0 159 80" fill="none" xmlns="http://www.w3.org/2000/svg">
<path d="M94.9612 75.0207C94.9612 75.7729 95.2384 76.4181 95.7973 76.9467C96.3563 77.5057 97.0294 77.7852 97.7839 77.7852V79.1243H86.4745V77.7852C87.2267 77.7852 87.9511 77.5057 88.51 76.9467C89.041 76.4157 89.2972 75.7729 89.2972 75.0207V16.4122C89.2972 15.66 89.0177 15.0149 88.4588 14.4862C87.8998 13.9272 87.2267 13.6477 86.4745 13.6477V12.3086H97.7839V13.6477C97.0294 13.6477 96.3074 13.9272 95.7484 14.4862C95.2174 15.0172 94.9612 15.66 94.9612 16.4122V75.0183V75.0207Z" fill="#0F47AD"/>
<path d="M80.9481 61.3403V70.8705C74.8555 76.5345 66.6925 80 57.719 80C38.873 80 23.595 64.7243 23.595 45.876C23.595 27.0277 38.873 11.7543 57.719 11.7543C63.2247 11.7543 68.4276 13.0585 73.0343 15.3782H73.0389C73.0925 15.4038 73.1437 15.4294 73.1973 15.4574C73.5676 15.6297 73.9845 15.7275 74.42 15.7275C76.02 15.7275 77.3149 14.4326 77.3149 12.8326H78.6587V24.8175H77.3149C72.1772 20.0361 65.2928 16.1747 57.7213 16.1747C41.8331 16.1747 29.3196 29.9901 29.3196 45.876C29.3196 61.7619 41.8331 75.5773 57.7213 75.5773C63.3667 75.5773 68.551 74.0169 73.0785 71.0964C77.3266 68.3552 79.6066 64.1747 79.6066 61.338H80.9504L80.9481 61.3403Z" fill="#0F47AD"/>
<path d="M8.60075 17.2646V53.2891H10.9949C11.7565 53.2891 12.404 53.0073 12.9396 52.4437C13.4753 51.9103 13.7431 51.2606 13.7431 50.499H15.1358V58.5828H13.7431C13.7431 57.8213 13.4753 57.1715 12.9396 56.6358C12.404 56.0745 11.7565 55.7927 10.9949 55.7927H8.60075V74.0984C8.62404 74.8227 8.90352 75.4632 9.44384 75.9965C9.9795 76.5322 10.8366 76.8443 11.7751 76.8443C12.7137 76.8443 13.0817 76.7674 13.6872 76.5974C13.6919 76.5951 13.7012 76.5951 13.7082 76.5927C14.9006 76.283 15.951 75.6635 16.8872 74.7365C18.3312 73.2949 19.0485 71.5831 19.0485 69.5825H20.4133V79.1243H-0.00012207V77.9412C0.780082 77.9412 1.44151 77.6734 1.97717 77.1377C2.54544 76.5811 2.82026 75.9173 2.82026 75.1604H2.82259V16.205H2.82026C2.82026 15.4434 2.54311 14.782 1.97717 14.2277C1.44151 13.692 0.780082 13.4242 -0.00012207 13.4242V12.3086H20.4133V21.7828H19.0485C19.0485 19.7822 18.3335 18.0728 16.8872 16.6265C15.9533 15.7042 14.9006 15.0824 13.7082 14.7703C13.7035 14.768 13.6942 14.768 13.6872 14.7657C13.0794 14.5956 12.7114 14.5211 11.7751 14.5211C10.8389 14.5211 9.9795 14.8309 9.44384 15.3665C8.89886 15.8999 8.61938 16.538 8.60075 17.2646Z" fill="#0F47AD"/>
<path d="M156.432 76.9467C155.875 76.4157 155.596 75.7753 155.596 75.0183V21.6477C155.596 18.8856 154.455 16.3843 152.62 14.591C150.838 12.8489 148.395 11.7706 145.712 11.7706C143.029 11.7706 140.667 12.8116 138.89 14.5048C137.006 16.3074 135.83 18.8437 135.83 21.6477V75.0183C135.83 75.7753 135.572 76.4157 135.043 76.9467C134.482 77.5034 133.827 77.7828 133.073 77.7828V79.1243H144.382V77.7828C143.627 77.7828 142.971 77.5034 142.412 76.9467C141.855 76.4157 141.576 75.7753 141.576 75.0183V58.5828L149.846 54.4955V75.016C149.846 75.7729 149.587 76.4134 149.059 76.9444C148.5 77.501 147.843 77.7805 147.088 77.7805V79.122H158.398V77.7805C157.643 77.7805 156.986 77.501 156.427 76.9444L156.432 76.9467ZM141.578 54.5887V20.3016C141.618 18.0542 143.453 16.2376 145.71 16.2376C147.966 16.2376 149.804 18.0542 149.843 20.3016V50.499L141.573 54.5863L141.578 54.5887Z" fill="#0F47AD"/>
<path d="M120.135 71.469C120.096 73.7165 118.26 75.5331 116.004 75.5331C113.747 75.5331 111.909 73.7165 111.87 71.469V58.683C111.87 57.9261 112.128 57.2856 112.657 56.7546C113.216 56.198 113.873 55.9185 114.627 55.9185V54.577H103.318V55.9185C104.072 55.9185 104.729 56.198 105.288 56.7546C105.845 57.2856 106.124 57.9261 106.124 58.683V70.1229C106.124 72.885 107.265 75.3863 109.1 77.1796C110.882 78.9217 113.325 80 116.008 80C118.691 80 121.053 78.959 122.83 77.2658C124.714 75.4632 125.89 72.9269 125.89 70.1229V16.4146C125.89 15.6576 126.148 15.0172 126.677 14.4862C127.238 13.9296 127.893 13.6501 128.647 13.6501V12.3086H117.338V13.6501C118.093 13.6501 118.749 13.9296 119.308 14.4862C119.865 15.0172 120.144 15.6576 120.144 16.4146V71.469H120.135Z" fill="#0F47AD"/>
<path d="M14.0413 0L17.8655 2.97176L9.36477 7.97438L7.49927 6.52344L14.0413 0Z" fill="#0F47AD"/>
</svg>
